<svg id="Layer_1" data-name="Layer 1" xmlns="http://www.w3.org/2000/svg" viewBox="0 0 170.58 88.25"><defs><style>.cls-1{fill:none;stroke:#1b2b2e;stroke-miterlimit:10;stroke-width:3px;}.cls-2{fill:#1b2b2e;}</style></defs><rect class="cls-1" x="99.01" y="105.17" width="85.25" height="73.12" rx="12" transform="translate(226.92 -97.51) rotate(90)"/><path class="cls-2" d="M98.52,128v28.38H71.82V128h26.7m1.5-1.5H70.32v31.38H100V126.54Z" transform="translate(-56.44 -97.61)"/><path class="cls-2" d="M67.44,126.26V158.2h-9.5V126.26h9.5m1.5-1.5H56.44V159.7h12.5V124.76Z" transform="translate(-56.44 -97.61)"/><path class="cls-2" d="M97.75,122.77v1.57H73.45v-1.57h24.3m1-1H72.45v3.57h26.3v-3.57Z" transform="translate(-56.44 -97.61)"/><path class="cls-2" d="M97.75,160.08v1.57H73.45v-1.57h24.3m1-1H72.45v3.57h26.3v-3.57Z" transform="translate(-56.44 -97.61)"/><path class="cls-2" d="M211.64,128v28.38h-26.7V128h26.7m1.5-1.5h-29.7v31.38h29.7V126.54Z" transform="translate(-56.44 -97.61)"/><path class="cls-2" d="M225.52,126.26V158.2H216V126.26h9.5m1.5-1.5h-12.5V159.7H227V124.76Z" transform="translate(-56.44 -97.61)"/><path class="cls-2" d="M210,122.77v1.57h-24.3v-1.57H210m1-1h-26.3v3.57H211v-3.57Z" transform="translate(-56.44 -97.61)"/><path class="cls-2" d="M210,160.08v1.57h-24.3v-1.57H210m1-1h-26.3v3.57H211v-3.57Z" transform="translate(-56.44 -97.61)"/></svg>