<svg id="Layer_1" data-name="Layer 1" xmlns="http://www.w3.org/2000/svg" viewBox="0 0 170.58 86.25"><defs><style>.cls-1{fill:none;stroke:#1b2b2e;stroke-miterlimit:10;}.cls-2{fill:#1b2b2e;}</style></defs><rect class="cls-1" x="99.01" y="105.17" width="85.25" height="73.12" rx="12" transform="translate(226.92 -98.51) rotate(90)"/><path class="cls-2" d="M99.52,127v30.38H70.82V127h28.7m.5-.5H70.32v31.38H100V126.54Z" transform="translate(-56.44 -98.61)"/><path class="cls-2" d="M68.44,125.26V159.2H56.94V125.26h11.5m.5-.5H56.44V159.7h12.5V124.76Z" transform="translate(-56.44 -98.61)"/><path class="cls-2" d="M98.25,122.27v2.57H73v-2.57h25.3m.5-.5H72.45v3.57h26.3v-3.57Z" transform="translate(-56.44 -98.61)"/><path class="cls-2" d="M98.25,159.58v2.57H73v-2.57h25.3m.5-.5H72.45v3.57h26.3v-3.57Z" transform="translate(-56.44 -98.61)"/><path class="cls-2" d="M212.64,127v30.38h-28.7V127h28.7m.5-.5h-29.7v31.38h29.7V126.54Z" transform="translate(-56.44 -98.61)"/><path class="cls-2" d="M226.52,125.26V159.2H215V125.26h11.5m.5-.5h-12.5V159.7H227V124.76Z" transform="translate(-56.44 -98.61)"/><path class="cls-2" d="M210.51,122.27v2.57h-25.3v-2.57h25.3m.5-.5h-26.3v3.57H211v-3.57Z" transform="translate(-56.44 -98.61)"/><path class="cls-2" d="M210.51,159.58v2.57h-25.3v-2.57h25.3m.5-.5h-26.3v3.57H211v-3.57Z" transform="translate(-56.44 -98.61)"/></svg>